<svg width="36" height="36" viewBox="0 0 36 36" fill="none" xmlns="http://www.w3.org/2000/svg">
<path d="M26.6154 30.2969V3.84615C26.614 3.35696 26.419 2.88821 26.0731 2.5423C25.7272 2.19638 25.2584 2.00142 24.7692 2H3.84615C3.35696 2.00142 2.88821 2.19638 2.5423 2.5423C2.19638 2.88821 2.00142 3.35696 2 3.84615V30.9231C2.00243 31.7384 2.32739 32.5196 2.9039 33.0961C3.48041 33.6726 4.26162 33.9976 5.07692 34H30.3077" stroke="white" stroke-width="2.46154" stroke-linejoin="round"/>
<path d="M30.3077 34C29.3284 34 28.3893 33.611 27.6968 32.9186C27.0044 32.2261 26.6154 31.287 26.6154 30.3077V8.15387H32.1538C32.6435 8.15387 33.1131 8.34837 33.4593 8.6946C33.8055 9.04082 34 9.51039 34 10V30.3077C34 31.287 33.611 32.2261 32.9186 32.9186C32.2261 33.611 31.287 34 30.3077 34Z" stroke="white" stroke-width="2.46154" stroke-linejoin="round"/>
<path d="M16.7692 8.15387H21.6923M16.7692 13.0769H21.6923M6.92308 18H21.6923M6.92308 22.9231H21.6923M6.92308 27.8462H21.6923" stroke="white" stroke-width="2.46154" stroke-linecap="round" stroke-linejoin="round"/>
<path d="M11.8462 14.3077H6.92308C6.59666 14.3077 6.28361 14.178 6.05279 13.9472C5.82198 13.7164 5.69231 13.4034 5.69231 13.0769V8.15386C5.69231 7.82744 5.82198 7.51439 6.05279 7.28358C6.28361 7.05277 6.59666 6.9231 6.92308 6.9231H11.8462C12.1726 6.9231 12.4856 7.05277 12.7164 7.28358C12.9473 7.51439 13.0769 7.82744 13.0769 8.15386V13.0769C13.0769 13.4034 12.9473 13.7164 12.7164 13.9472C12.4856 14.178 12.1726 14.3077 11.8462 14.3077Z" fill="white"/>
</svg>
