<svg width="36" height="36" viewBox="0 0 36 36" fill="none" xmlns="http://www.w3.org/2000/svg">
<path d="M18 33L24 27L20.25 10.5L21.7395 6.5265C21.8246 6.29961 21.8534 6.05549 21.8235 5.81503C21.7936 5.57457 21.7059 5.34493 21.5679 5.14576C21.4299 4.94658 21.2457 4.7838 21.0311 4.67134C20.8165 4.55888 20.5778 4.50009 20.3355 4.5H15.6645C15.4222 4.50009 15.1835 4.55888 14.9689 4.67134C14.7543 4.7838 14.5701 4.94658 14.4321 5.14576C14.2941 5.34493 14.2064 5.57457 14.1765 5.81503C14.1466 6.05549 14.1754 6.29961 14.2605 6.5265L15.75 10.5L12 27L18 33Z" stroke="white" stroke-width="2" stroke-linecap="round" stroke-linejoin="round"/>
<path d="M15.75 10.5H20.25L27.75 18.75" stroke="white" stroke-width="2" stroke-linecap="round" stroke-linejoin="round"/>
</svg>
