<svg width="32" height="32" viewBox="0 0 32 32" fill="none" xmlns="http://www.w3.org/2000/svg">
<path d="M27.9551 28.9834L29.0084 27.9341L17.0088 15.9789C17.4853 15.4043 17.8555 14.7547 18.1193 14.0301C18.3821 13.3056 18.5135 12.5435 18.5135 11.744C18.5135 9.87017 17.8555 8.28364 16.5394 6.98444C15.2223 5.68524 13.6234 5.03564 11.7426 5.03564H11.3664L15.9932 9.64531L9.59846 15.9789L4.97168 11.3692V11.7815C4.97168 13.6553 5.62971 15.2419 6.94577 16.5411C8.26284 17.8403 9.86178 18.4899 11.7426 18.4899C12.5451 18.4899 13.3039 18.3585 14.0191 18.0956C14.7333 17.8338 15.3788 17.4655 15.9556 16.9908L27.9551 28.9834ZM25.8486 31.1196L15.4666 20.776C14.8898 21.0008 14.2945 21.1757 13.6806 21.3007C13.0657 21.4256 12.4322 21.488 11.7802 21.488C9.04676 21.488 6.73362 20.5446 4.84077 18.6578C2.94692 16.7719 2 14.4673 2 11.744C2 10.6947 2.15698 9.68279 2.47095 8.70838C2.78392 7.73398 3.24133 6.83453 3.84319 6.01004L9.59846 11.744L11.7426 9.64531L5.98731 3.87385C6.83994 3.24923 7.75527 2.78052 8.73329 2.46771C9.71131 2.1559 10.7144 2 11.7426 2C14.476 2 16.7897 2.94292 18.6835 4.82876C20.5764 6.71561 21.5228 9.02069 21.5228 11.744C21.5228 12.3936 21.4601 13.0367 21.3347 13.6733C21.2093 14.3109 21.0212 14.9171 20.7705 15.4917L31.1149 25.7979C31.6917 26.3725 31.9866 27.0781 31.9996 27.9146C32.0117 28.7521 31.7293 29.4581 31.1525 30.0328L30.1369 31.0822C29.5601 31.6818 28.8514 31.9876 28.0108 31.9996C27.1712 32.0126 26.4505 31.7193 25.8486 31.1196Z" fill="white"/>
</svg>
