<svg width="109" height="41" viewBox="0 0 109 41" fill="none" xmlns="http://www.w3.org/2000/svg">
<path d="M108 32.6389H91.8726V7.85748H97.1031V28.2913H108V32.6389Z" stroke="#1C1C1E" stroke-width="1.81327"/>
<path d="M1.56863 32V28.7247L13.7552 12.282V12.149H1.85127V8.00921H19.7571V11.2678L7.62036 27.7272V27.8436H20.0896V32H1.56863ZM30.0317 28.7746C31.1068 28.7746 32.0157 28.4643 32.7583 27.8436C33.512 27.2118 33.8889 26.4193 33.8889 25.4661V24.1693L30.1315 24.4021C29.2226 24.4686 28.5188 24.6958 28.02 25.0837C27.5323 25.4717 27.2885 25.9815 27.2885 26.6133C27.2885 27.2783 27.5379 27.8048 28.0366 28.1927C28.5354 28.5807 29.2004 28.7746 30.0317 28.7746ZM28.4357 32.2826C26.7177 32.2826 25.2934 31.7783 24.1629 30.7697C23.0323 29.7611 22.4671 28.4643 22.4671 26.8793C22.4671 25.2611 23.0656 23.992 24.2626 23.072C25.4597 22.1521 27.1721 21.6256 29.4 21.4926L33.8889 21.2266V20.0462C33.8889 19.226 33.6173 18.5831 33.0742 18.1176C32.5422 17.6521 31.8162 17.4193 30.8963 17.4193C30.0096 17.4193 29.2836 17.6188 28.7183 18.0178C28.1641 18.4169 27.8261 18.9544 27.7041 19.6305H23.2651C23.3538 17.8793 24.1019 16.4717 25.5096 15.4076C26.9172 14.3325 28.7848 13.7949 31.1124 13.7949C33.3956 13.7949 35.2245 14.338 36.5989 15.4242C37.9732 16.5104 38.6604 17.9513 38.6604 19.7469V32H33.972V29.2734H33.8722C33.3846 30.2044 32.6419 30.9415 31.6444 31.4846C30.6469 32.0166 29.5773 32.2826 28.4357 32.2826ZM57.996 20.8109H53.4905C53.3464 19.8467 52.964 19.0708 52.3433 18.4834C51.7337 17.8959 50.9412 17.6022 49.9659 17.6022C48.7577 17.6022 47.8045 18.0899 47.1063 19.0653C46.4191 20.0295 46.0755 21.3651 46.0755 23.072C46.0755 24.8122 46.4191 26.1644 47.1063 27.1287C47.8045 28.093 48.7633 28.5751 49.9825 28.5751C50.9468 28.5751 51.7337 28.3036 52.3433 27.7605C52.9529 27.2063 53.3353 26.4415 53.4905 25.4661H58.0127C57.8908 27.572 57.0983 29.2512 55.6352 30.5037C54.1721 31.7562 52.2713 32.3824 49.9326 32.3824C47.2282 32.3824 45.089 31.5566 43.5151 29.9052C41.9412 28.2426 41.1543 25.9649 41.1543 23.072C41.1543 20.2235 41.9412 17.968 43.5151 16.3054C45.1001 14.6318 47.2282 13.7949 49.8994 13.7949C52.2713 13.7949 54.1832 14.4489 55.6352 15.7568C57.0983 17.0646 57.8852 18.7494 57.996 20.8109ZM60.4733 32V8.00921H65.2448V17.3528H65.3446C65.8212 16.2223 66.5361 15.3577 67.4893 14.7592C68.4536 14.1496 69.6063 13.8448 70.9474 13.8448C72.9092 13.8448 74.4333 14.4433 75.5195 15.6404C76.6168 16.8263 77.1654 18.4556 77.1654 20.5283V32H72.3107V21.5591C72.3107 20.3953 72.0225 19.492 71.4462 18.8491C70.8809 18.1952 70.0552 17.8682 68.969 17.8682C67.8384 17.8682 66.9462 18.234 66.2922 18.9655C65.6494 19.6859 65.328 20.6391 65.328 21.8251V32H60.4733Z" fill="black"/>
</svg>
